<svg id="visual" viewBox="0 0 900 450" width="900" height="450" xmlns="http://www.w3.org/2000/svg" xmlns:xlink="http://www.w3.org/1999/xlink" version="1.1"><rect x="0" y="0" width="900" height="450" fill="#242424"></rect><path d="M0 303L21.5 298.2C43 293.3 86 283.7 128.8 274.7C171.7 265.7 214.3 257.3 257.2 263.8C300 270.3 343 291.7 385.8 302.8C428.7 314 471.3 315 514.2 311.7C557 308.3 600 300.7 642.8 294.2C685.7 287.7 728.3 282.3 771.2 275.7C814 269 857 261 878.5 257L900 253L900 451L878.5 451C857 451 814 451 771.2 451C728.3 451 685.7 451 642.8 451C600 451 557 451 514.2 451C471.3 451 428.7 451 385.8 451C343 451 300 451 257.2 451C214.3 451 171.7 451 128.8 451C86 451 43 451 21.5 451L0 451Z" fill="#0db470"></path><path d="M0 309L21.5 308.7C43 308.3 86 307.7 128.8 316.3C171.7 325 214.3 343 257.2 351.7C300 360.3 343 359.7 385.8 357.2C428.7 354.7 471.3 350.3 514.2 345C557 339.7 600 333.3 642.8 334.8C685.7 336.3 728.3 345.7 771.2 350.5C814 355.3 857 355.7 878.5 355.8L900 356L900 451L878.5 451C857 451 814 451 771.2 451C728.3 451 685.7 451 642.8 451C600 451 557 451 514.2 451C471.3 451 428.7 451 385.8 451C343 451 300 451 257.2 451C214.3 451 171.7 451 128.8 451C86 451 43 451 21.5 451L0 451Z" fill="#17a168"></path><path d="M0 362L21.5 364C43 366 86 370 128.8 374.2C171.7 378.3 214.3 382.7 257.2 386.7C300 390.7 343 394.3 385.8 392.3C428.7 390.3 471.3 382.7 514.2 381.7C557 380.7 600 386.3 642.8 388C685.7 389.7 728.3 387.3 771.2 384.7C814 382 857 379 878.5 377.5L900 376L900 451L878.5 451C857 451 814 451 771.2 451C728.3 451 685.7 451 642.8 451C600 451 557 451 514.2 451C471.3 451 428.7 451 385.8 451C343 451 300 451 257.2 451C214.3 451 171.7 451 128.8 451C86 451 43 451 21.5 451L0 451Z" fill="#1d8f5f"></path></svg>